REM DIRINDEX 1\2\4,1\2\5,1\2\6,1\3\7,1\3\8,1\3\9,1\3\10
REM DIRNAME cjc058,folder01,folder02,folder03,folder04,folder05,folder06,folder07,folder08,folder09
TITLE ""
FILE "b_07.mp3" MP3
  TRACK 01 AUDIO
    TITLE "0:"
    INDEX 01 00:00:00
  TRACK 02 AUDIO
    TITLE "10:cjc058_2438"
    INDEX 01 00:00:13
  TRACK 03 AUDIO
    TITLE "0:"
    INDEX 01 00:02:57
  TRACK 04 AUDIO
    TITLE "7:cjc058_2439"
    INDEX 01 00:03:31
  TRACK 05 AUDIO
    TITLE "0:"
    INDEX 01 00:04:62
  TRACK 06 AUDIO
    TITLE "8:cjc058_2440"
    INDEX 01 00:05:22
  TRACK 07 AUDIO
    TITLE "0:"
    INDEX 01 00:06:61
  TRACK 08 AUDIO
    TITLE "9:cjc058_2441"
    INDEX 01 00:07:29
  TRACK 09 AUDIO
    TITLE "0:"
    INDEX 01 00:10:35
  TRACK 10 AUDIO
    TITLE "7:cjc058_2442"
    INDEX 01 00:11:46
  TRACK 11 AUDIO
    TITLE "0:"
    INDEX 01 00:13:10
  TRACK 12 AUDIO
    TITLE "8:cjc058_2443"
    INDEX 01 00:13:45
  TRACK 13 AUDIO
    TITLE "0:"
    INDEX 01 00:16:24
  TRACK 14 AUDIO
    TITLE "9:cjc058_2444"
    INDEX 01 00:16:71
  TRACK 15 AUDIO
    TITLE "0:"
    INDEX 01 00:21:23
  TRACK 16 AUDIO
    TITLE "7:cjc058_2445"
    INDEX 01 00:22:32
  TRACK 17 AUDIO
    TITLE "0:"
    INDEX 01 00:23:51
  TRACK 18 AUDIO
    TITLE "8:cjc058_2446"
    INDEX 01 00:24:08
  TRACK 19 AUDIO
    TITLE "0:"
    INDEX 01 00:25:37
  TRACK 20 AUDIO
    TITLE "9:cjc058_2447"
    INDEX 01 00:26:13
  TRACK 21 AUDIO
    TITLE "0:"
    INDEX 01 00:28:53
  TRACK 22 AUDIO
    TITLE "7:cjc058_2448"
    INDEX 01 00:29:66
  TRACK 23 AUDIO
    TITLE "0:"
    INDEX 01 00:31:14
  TRACK 24 AUDIO
    TITLE "8:cjc058_2449"
    INDEX 01 00:31:47
  TRACK 25 AUDIO
    TITLE "0:"
    INDEX 01 00:34:12
  TRACK 26 AUDIO
    TITLE "9:cjc058_2450"
    INDEX 01 00:34:59
  TRACK 27 AUDIO
    TITLE "0:"
    INDEX 01 00:37:32
  TRACK 28 AUDIO
    TITLE "7:cjc058_2451"
    INDEX 01 00:38:43
  TRACK 29 AUDIO
    TITLE "0:"
    INDEX 01 00:39:70
  TRACK 30 AUDIO
    TITLE "8:cjc058_2452"
    INDEX 01 00:40:26
  TRACK 31 AUDIO
    TITLE "0:"
    INDEX 01 00:41:59
  TRACK 32 AUDIO
    TITLE "9:cjc058_2453"
    INDEX 01 00:42:31
  TRACK 33 AUDIO
    TITLE "0:"
    INDEX 01 00:45:65
  TRACK 34 AUDIO
    TITLE "7:cjc058_2454"
    INDEX 01 00:47:01
  TRACK 35 AUDIO
    TITLE "0:"
    INDEX 01 00:48:28
  TRACK 36 AUDIO
    TITLE "8:cjc058_2455"
    INDEX 01 00:48:61
  TRACK 37 AUDIO
    TITLE "0:"
    INDEX 01 00:51:11
  TRACK 38 AUDIO
    TITLE "9:cjc058_2456"
    INDEX 01 00:51:58
  TRACK 39 AUDIO
    TITLE "0:"
    INDEX 01 00:56:53
  TRACK 40 AUDIO
    TITLE "7:cjc058_2457"
    INDEX 01 00:57:62
  TRACK 41 AUDIO
    TITLE "0:"
    INDEX 01 00:59:10
  TRACK 42 AUDIO
    TITLE "8:cjc058_2458"
    INDEX 01 00:59:45
  TRACK 43 AUDIO
    TITLE "0:"
    INDEX 01 01:01:05
  TRACK 44 AUDIO
    TITLE "9:cjc058_2459"
    INDEX 01 01:01:54
  TRACK 45 AUDIO
    TITLE "0:"
    INDEX 01 01:07:29
  TRACK 46 AUDIO
    TITLE "7:cjc058_2460"
    INDEX 01 01:08:40
  TRACK 47 AUDIO
    TITLE "0:"
    INDEX 01 01:09:57
  TRACK 48 AUDIO
    TITLE "8:cjc058_2461"
    INDEX 01 01:10:18
  TRACK 49 AUDIO
    TITLE "0:"
    INDEX 01 01:11:51
  TRACK 50 AUDIO
    TITLE "9:cjc058_2462"
    INDEX 01 01:12:17
  TRACK 51 AUDIO
    TITLE "0:"
    INDEX 01 01:15:74
  TRACK 52 AUDIO
    TITLE "7:cjc058_2463"
    INDEX 01 01:17:10
  TRACK 53 AUDIO
    TITLE "0:"
    INDEX 01 01:18:29
  TRACK 54 AUDIO
    TITLE "8:cjc058_2464"
    INDEX 01 01:18:64
  TRACK 55 AUDIO
    TITLE "0:"
    INDEX 01 01:21:67
  TRACK 56 AUDIO
    TITLE "9:cjc058_2465"
    INDEX 01 01:22:41
  TRACK 57 AUDIO
    TITLE "0:"
    INDEX 01 01:26:07
  TRACK 58 AUDIO
    TITLE "7:cjc058_2466"
    INDEX 01 01:27:16
  TRACK 59 AUDIO
    TITLE "0:"
    INDEX 01 01:28:33
  TRACK 60 AUDIO
    TITLE "8:cjc058_2467"
    INDEX 01 01:28:67
  TRACK 61 AUDIO
    TITLE "0:"
    INDEX 01 01:31:32
  TRACK 62 AUDIO
    TITLE "9:cjc058_2468"
    INDEX 01 01:32:06
  TRACK 63 AUDIO
    TITLE "0:"
    INDEX 01 01:35:08
  TRACK 64 AUDIO
    TITLE "7:cjc058_2469"
    INDEX 01 01:36:19
  TRACK 65 AUDIO
    TITLE "0:"
    INDEX 01 01:37:48
  TRACK 66 AUDIO
    TITLE "8:cjc058_2470"
    INDEX 01 01:38:08
  TRACK 67 AUDIO
    TITLE "0:"
    INDEX 01 01:40:62
  TRACK 68 AUDIO
    TITLE "9:cjc058_2471"
    INDEX 01 01:41:36
  TRACK 69 AUDIO
    TITLE "0:"
    INDEX 01 01:45:67
  TRACK 70 AUDIO
    TITLE "7:cjc058_2472"
    INDEX 01 01:47:03
  TRACK 71 AUDIO
    TITLE "0:"
    INDEX 01 01:48:12
  TRACK 72 AUDIO
    TITLE "8:cjc058_2473"
    INDEX 01 01:48:46
  TRACK 73 AUDIO
    TITLE "0:"
    INDEX 01 01:49:57
  TRACK 74 AUDIO
    TITLE "9:cjc058_2474"
    INDEX 01 01:50:29
  TRACK 75 AUDIO
    TITLE "0:"
    INDEX 01 01:52:55
